<?xml version="1.0" ?><svg style="enable-background:new 0 0 512 512;" version="1.1" viewBox="0 0 512 512" xml:space="preserve" xmlns="http://www.w3.org/2000/svg" xmlns:xlink="http://www.w3.org/1999/xlink"><style type="text/css">
	.st0{fill:#16ADE1;}
	.st1{fill:#1B3954;}
</style><g id="Layer_1"/><g id="Layer_2"><g><path class="st1" d="M473.5,149.5l-18.4,18.4l-17.9,18L395.3,144v238.5c-0.2,10.7-4,21.4-10.6,31.1c-7.8,11.5-19.6,21.8-34.1,29.4    c-8.5,4.5-18,8-28.1,10.4c-46.5,10.9-90.7-6.9-100.3-39.8c-0.2-0.8-0.4-1.6-0.6-2.5c-0.9-3.7-1.3-7.4-1.3-11.1    c0-5.9,1.1-11.8,3.2-17.6c5.6-15.5,18.3-29.9,35.6-40.4c4.9-3,10.3-5.7,15.9-8c5.7-2.3,11.8-4.3,18.1-5.8    c17.9-4.2,35.4-4.1,50.8-0.6V55.3h35.3L473.5,149.5z"/><g><path class="st0" d="M333.9,65.2v10H96.2c-2.8,0-5-2.2-5-5s2.2-5,5-5H333.9z"/></g><g><g><path class="st0" d="M68.8,75.2H43.5c-2.8,0-5-2.2-5-5s2.2-5,5-5h25.3c2.8,0,5,2.2,5,5S71.6,75.2,68.8,75.2z"/></g></g><g><path class="st0" d="M333.9,131.2v10H96.2c-2.8,0-5-2.2-5-5s2.2-5,5-5H333.9z"/></g><g><g><path class="st0" d="M68.8,141.2H43.5c-2.8,0-5-2.2-5-5s2.2-5,5-5h25.3c2.8,0,5,2.2,5,5S71.6,141.2,68.8,141.2z"/></g></g><g><path class="st0" d="M333.9,197.2v10H96.2c-2.8,0-5-2.2-5-5s2.2-5,5-5H333.9z"/></g><g><g><path class="st0" d="M68.8,207.2H43.5c-2.8,0-5-2.2-5-5s2.2-5,5-5h25.3c2.8,0,5,2.2,5,5S71.6,207.2,68.8,207.2z"/></g></g><g><path class="st0" d="M333.9,263.2v10H96.2c-2.8,0-5-2.2-5-5s2.2-5,5-5H333.9z"/></g><g><g><path class="st0" d="M68.8,273.2H43.5c-2.8,0-5-2.2-5-5s2.2-5,5-5h25.3c2.8,0,5,2.2,5,5S71.6,273.2,68.8,273.2z"/></g></g><g><path class="st0" d="M261.9,329.2c-2.8,1.4-5.4,2.9-8,4.4c-2.9,1.8-5.7,3.6-8.3,5.6H96.2c-2.8,0-5-2.2-5-5s2.2-5,5-5H261.9z"/></g><g><g><path class="st0" d="M68.8,339.2H43.5c-2.8,0-5-2.2-5-5s2.2-5,5-5h25.3c2.8,0,5,2.2,5,5S71.6,339.2,68.8,339.2z"/></g></g><g><g><path class="st0" d="M210.3,400.1c0,1.7,0.1,3.3,0.2,5H96.2c-2.8,0-5-2.2-5-5s2.2-5,5-5h114.3      C210.4,396.8,210.3,398.5,210.3,400.1z"/></g></g><g><g><path class="st0" d="M68.8,405.2H43.5c-2.8,0-5-2.2-5-5s2.2-5,5-5h25.3c2.8,0,5,2.2,5,5S71.6,405.2,68.8,405.2z"/></g></g></g></g></svg>